<svg width="114" height="44" viewBox="0 0 114 44" fill="none" xmlns="http://www.w3.org/2000/svg">
<path d="M2.58239 35V8.81818H12.4006C14.4119 8.81818 16.0994 9.19318 17.4631 9.94318C18.8352 10.6932 19.8707 11.7244 20.5696 13.0369C21.277 14.3409 21.6307 15.8239 21.6307 17.4858C21.6307 19.1648 21.277 20.6562 20.5696 21.9602C19.8622 23.2642 18.8182 24.2912 17.4375 25.0412C16.0568 25.7827 14.3565 26.1534 12.3366 26.1534H5.82955V22.2543H11.6974C12.8736 22.2543 13.8366 22.0497 14.5866 21.6406C15.3366 21.2315 15.8906 20.669 16.2486 19.9531C16.6151 19.2372 16.7983 18.4148 16.7983 17.4858C16.7983 16.5568 16.6151 15.7386 16.2486 15.0312C15.8906 14.3239 15.3324 13.7741 14.5739 13.3821C13.8239 12.9815 12.8565 12.7812 11.6719 12.7812H7.32528V35H2.58239ZM33.9577 35.3835C31.989 35.3835 30.2887 34.9744 28.8569 34.1562C27.4336 33.3295 26.3384 32.1619 25.5714 30.6534C24.8043 29.1364 24.4208 27.3509 24.4208 25.2969C24.4208 23.277 24.8043 21.5043 25.5714 19.9787C26.3469 18.4446 27.4293 17.2514 28.8185 16.3991C30.2077 15.5384 31.8398 15.108 33.7148 15.108C34.9251 15.108 36.0671 15.304 37.141 15.696C38.2234 16.0795 39.1779 16.6761 40.0046 17.4858C40.8398 18.2955 41.4961 19.3267 41.9734 20.5795C42.4506 21.8239 42.6893 23.3068 42.6893 25.0284V26.4474H26.5941V23.3281H38.2532C38.2447 22.4418 38.0529 21.6534 37.6779 20.9631C37.3029 20.2642 36.7788 19.7145 36.1055 19.3139C35.4407 18.9134 34.6651 18.7131 33.7788 18.7131C32.8327 18.7131 32.0018 18.9432 31.2859 19.4034C30.57 19.8551 30.0117 20.4517 29.6112 21.1932C29.2191 21.9261 29.0188 22.7315 29.0103 23.6094V26.3324C29.0103 27.4744 29.2191 28.4545 29.6367 29.2727C30.0543 30.0824 30.6381 30.7045 31.3881 31.1392C32.1381 31.5653 33.016 31.7784 34.0217 31.7784C34.695 31.7784 35.3043 31.6847 35.8498 31.4972C36.3952 31.3011 36.8683 31.0156 37.2688 30.6406C37.6694 30.2656 37.9719 29.8011 38.1765 29.2472L42.4975 29.733C42.2248 30.875 41.7049 31.8722 40.9379 32.7244C40.1793 33.5682 39.2077 34.2244 38.0231 34.6932C36.8384 35.1534 35.4833 35.3835 33.9577 35.3835ZM56.4098 15.3636V18.9432H45.1214V15.3636H56.4098ZM47.9084 10.6591H52.5362V29.0938C52.5362 29.7159 52.63 30.1932 52.8175 30.5256C53.0135 30.8494 53.2692 31.071 53.5845 31.1903C53.8999 31.3097 54.2493 31.3693 54.6328 31.3693C54.9226 31.3693 55.1868 31.348 55.4254 31.3054C55.6726 31.2628 55.8601 31.2244 55.9879 31.1903L56.7678 34.8082C56.5206 34.8935 56.1669 34.9872 55.7067 35.0895C55.255 35.1918 54.701 35.2514 54.0447 35.2685C52.8857 35.3026 51.8416 35.1278 50.9126 34.7443C49.9837 34.3523 49.2464 33.7472 48.701 32.929C48.1641 32.1108 47.8999 31.0881 47.9084 29.8608V10.6591ZM68.7624 35.3835C66.7937 35.3835 65.0934 34.9744 63.6616 34.1562C62.2383 33.3295 61.1431 32.1619 60.3761 30.6534C59.609 29.1364 59.2255 27.3509 59.2255 25.2969C59.2255 23.277 59.609 21.5043 60.3761 19.9787C61.1516 18.4446 62.234 17.2514 63.6232 16.3991C65.0124 15.5384 66.6445 15.108 68.5195 15.108C69.7298 15.108 70.8718 15.304 71.9457 15.696C73.0281 16.0795 73.9826 16.6761 74.8093 17.4858C75.6445 18.2955 76.3008 19.3267 76.7781 20.5795C77.2553 21.8239 77.494 23.3068 77.494 25.0284V26.4474H61.3988V23.3281H73.0579C73.0494 22.4418 72.8576 21.6534 72.4826 20.9631C72.1076 20.2642 71.5835 19.7145 70.9102 19.3139C70.2454 18.9134 69.4698 18.7131 68.5835 18.7131C67.6374 18.7131 66.8065 18.9432 66.0906 19.4034C65.3746 19.8551 64.8164 20.4517 64.4158 21.1932C64.0238 21.9261 63.8235 22.7315 63.815 23.6094V26.3324C63.815 27.4744 64.0238 28.4545 64.4414 29.2727C64.859 30.0824 65.4428 30.7045 66.1928 31.1392C66.9428 31.5653 67.8207 31.7784 68.8264 31.7784C69.4996 31.7784 70.109 31.6847 70.6545 31.4972C71.1999 31.3011 71.6729 31.0156 72.0735 30.6406C72.4741 30.2656 72.7766 29.8011 72.9812 29.2472L77.3022 29.733C77.0295 30.875 76.5096 31.8722 75.7425 32.7244C74.984 33.5682 74.0124 34.2244 72.8278 34.6932C71.6431 35.1534 70.288 35.3835 68.7624 35.3835ZM81.4091 35V15.3636H85.8963V18.6364H86.1009C86.4588 17.5028 87.0724 16.6293 87.9418 16.0156C88.8196 15.3935 89.821 15.0824 90.946 15.0824C91.2017 15.0824 91.4872 15.0952 91.8026 15.1207C92.1264 15.1378 92.3949 15.1676 92.608 15.2102V19.4673C92.4119 19.3991 92.1009 19.3395 91.6747 19.2884C91.2571 19.2287 90.8523 19.1989 90.4602 19.1989C89.6165 19.1989 88.858 19.3821 88.1847 19.7486C87.5199 20.1065 86.9957 20.6051 86.6122 21.2443C86.2287 21.8835 86.0369 22.6207 86.0369 23.456V35H81.4091Z" fill="white"/>
<circle cx="104" cy="28" r="10" fill="#E8109C" fill-opacity="0.91"/>
</svg>
