<svg width="30" height="30" viewBox="0 0 30 30" fill="none" xmlns="http://www.w3.org/2000/svg">
<path d="M7.92875 22.0712L6.16125 23.8387M7.92875 7.92875L6.16125 6.16125M22.0712 7.92875L23.8387 6.16125M22.0712 22.0712L23.8387 23.8387M5 15H2.5M15 5V2.5M25 15H27.5M15 25V27.5M18.535 18.535C19.0126 18.0738 19.3935 17.522 19.6555 16.912C19.9176 16.302 20.0555 15.6459 20.0613 14.982C20.067 14.3181 19.9405 13.6597 19.6891 13.0452C19.4377 12.4307 19.0664 11.8725 18.597 11.403C18.1275 10.9336 17.5693 10.5623 16.9548 10.3109C16.3403 10.0595 15.6819 9.93298 15.018 9.93875C14.3541 9.94452 13.698 10.0824 13.088 10.3445C12.478 10.6065 11.9262 10.9874 11.465 11.465C10.5542 12.408 10.0502 13.671 10.0616 14.982C10.073 16.293 10.5989 17.5471 11.5259 18.4741C12.4529 19.4011 13.707 19.927 15.018 19.9384C16.329 19.9498 17.592 19.4458 18.535 18.535Z" stroke="#E8109C" stroke-opacity="0.91" stroke-width="5" stroke-linecap="round" stroke-linejoin="round"/>
</svg>
